<svg xmlns="http://www.w3.org/2000/svg" viewBox="0 0 180 180" width="180" height="180">
  <rect x="0" y="0" width="180" height="180" rx="6" fill="#1C1917"/>

  <g transform="translate(26,38)">
    <g fill="#EA580C">
      <rect x="0" y="0" width="14" height="14"/>
      <rect x="0" y="14" width="14" height="14"/>
      <rect x="0" y="28" width="14" height="14"/>
      <rect x="0" y="42" width="14" height="14"/>
      <rect x="0" y="56" width="14" height="14"/>
      <rect x="0" y="70" width="14" height="14"/>
      <rect x="0" y="84" width="14" height="14"/>

      <rect x="14" y="14" width="14" height="14"/>
      <rect x="28" y="28" width="14" height="14"/>
      <rect x="42" y="14" width="14" height="14"/>

      <rect x="56" y="0" width="14" height="14"/>
      <rect x="56" y="14" width="14" height="14"/>
      <rect x="56" y="28" width="14" height="14"/>
      <rect x="56" y="42" width="14" height="14"/>
      <rect x="56" y="56" width="14" height="14"/>
      <rect x="56" y="70" width="14" height="14"/>
      <rect x="56" y="84" width="14" height="14"/>
    </g>

    <g fill="#FFF7ED" transform="translate(84,0)">
      <rect x="0" y="28" width="14" height="14"/>
      <rect x="14" y="28" width="14" height="14"/>
      <rect x="28" y="28" width="14" height="14"/>

      <rect x="0" y="42" width="14" height="14"/>
      <rect x="28" y="42" width="14" height="14"/>

      <rect x="0" y="56" width="14" height="14"/>
      <rect x="14" y="56" width="14" height="14"/>
      <rect x="28" y="56" width="14" height="14"/>

      <rect x="28" y="70" width="14" height="14"/>
      <rect x="28" y="84" width="14" height="14"/>

      <rect x="0" y="98" width="14" height="14"/>
      <rect x="14" y="98" width="14" height="14"/>
      <rect x="28" y="98" width="14" height="14"/>
    </g>
  </g>
</svg>
